name C:\Users\u0101727\Documents\MyRepositories\paper-ad\trackingsimulations_3d\Results\TrackSim\IK_c1.mot
datacolumns 32
datarows 16
range 3.45000000 3.69000000
endheader
time	pelvis_tilt	pelvis_list	pelvis_rotation	pelvis_tx	pelvis_ty	pelvis_tz	hip_flexion_l	hip_adduction_l	hip_rotation_l	hip_flexion_r	hip_adduction_r	hip_rotation_r	knee_angle_l	knee_angle_r	ankle_angle_l	ankle_angle_r	subtalar_angle_l	subtalar_angle_r	lumbar_extension	lumbar_bending	lumbar_rotation	arm_flex_l	arm_add_l	arm_rot_l	arm_flex_r	arm_add_r	arm_rot_r	elbow_flex_l	elbow_flex_r	pro_sup_l	pro_sup_r	
          3.45000000	         -2.18354783	          4.46366663	          4.28354139	         -0.50917937	          0.94286886	         -0.22940444	         15.14313568	          8.99540865	          3.90022425	         13.62778797	         -1.86791626	         -2.09449241	        -21.88449863	        -64.90518694	          4.83447934	        -12.74391496	          5.00077072	        -13.55246389	         -4.50286720	         -4.16954774	         -3.24534562	         -1.85452616	        -15.75903616	         17.85830458	         -4.80924178	        -16.86472343	         12.15821108	         21.27638627	         23.54227618	         86.51662706	         86.51662706	
          3.46600000	         -2.18878908	          4.32664036	          4.38365866	         -0.49107239	          0.94651809	         -0.23047181	         14.03453041	          9.02997360	          3.56957318	         16.74625658	         -2.04694282	         -2.03980856	        -22.56775126	        -66.02552470	          7.47908760	        -11.01091119	          6.44057871	        -12.88163314	         -4.75334424	         -4.04757943	         -3.89569653	         -1.59879553	        -15.88953769	         17.29334475	         -4.98626174	        -16.81862085	         12.39005016	         22.60170997	         23.09142388	         86.51662706	         86.51662706	
          3.48200000	         -2.16810170	          3.89866870	          4.32106368	         -0.47248490	          0.94904785	         -0.23098523	         12.37825372	          8.55678965	          3.99814348	         19.64525179	         -1.86511981	         -1.95400631	        -21.91524670	        -66.32021940	          8.25997884	         -8.78265861	          6.30724873	        -11.86178116	         -4.90867481	         -3.62668245	         -4.34340667	         -1.41614942	        -16.05318015	         16.79266973	         -5.27323817	        -16.78370219	         12.43314196	         23.95170058	         22.63394965	         86.51662706	         86.51662706	
          3.49800000	         -2.11695774	          3.51039779	          4.34863528	         -0.45383434	          0.95124555	         -0.23159194	         10.69346704	          8.14828702	          4.48457473	         22.24263777	         -1.77611955	         -2.04136980	        -21.20936134	        -65.67969004	          8.66195755	         -7.12789502	          5.96233652	        -10.89202648	         -5.08251443	         -3.22673232	         -4.85714955	         -1.20449200	        -16.22536056	         16.39008827	         -5.64459386	        -16.74161821	         12.19675126	         25.23852711	         22.31428902	         86.51662706	         86.51662706	
          3.51400000	         -2.03833348	          3.09708657	          4.44863007	         -0.43508616	          0.95298006	         -0.23223178	          9.00238927	          7.71201857	          5.00157771	         24.49626303	         -1.68895459	         -2.27199393	        -20.53213826	        -64.11348694	          8.97910187	         -5.59950986	          5.57714727	        -10.20335734	         -5.26572388	         -2.77843240	         -5.40285790	         -0.97253233	        -16.40355092	         16.08505324	         -6.08015692	        -16.69899506	         11.70256171	         26.48046236	         22.09526044	         86.51662706	         86.51662706	
          3.53000000	         -1.94005326	          2.68194431	          4.58070445	         -0.41620865	          0.95417154	         -0.23281129	          7.30556689	          7.24442922	          5.47907908	         26.39379406	         -1.60731681	         -2.58559335	        -19.89019789	        -61.66764994	          9.32909266	         -4.00720025	          5.27247226	         -9.91097960	         -5.45161626	         -2.31904495	         -5.94106112	         -0.73348234	        -16.59971374	         15.85146332	         -6.53941360	        -16.64281103	         11.04782221	         27.68356225	         21.90829469	         86.51662706	         86.51662706	
          3.54600000	         -1.82626404	          2.30038842	          4.72286731	         -0.39716433	          0.95477914	         -0.23328578	          5.58368571	          6.76419823	          5.85578136	         27.92417004	         -1.55507341	         -2.93778232	        -19.25111178	        -58.40620460	          9.74094995	         -2.46030342	          5.12312518	        -10.02469274	         -5.63908080	         -1.89472382	         -6.45727006	         -0.49678896	        -16.81757367	         15.67085606	         -6.98623310	        -16.56337818	         10.33252739	         28.82954864	         21.69584535	         86.51662706	         86.51662706	
          3.56200000	         -1.69703406	          1.98407522	          4.87025061	         -0.37791765	          0.95480113	         -0.23366364	          3.81284642	          6.30227498	          6.12726956	         29.08125151	         -1.56604139	         -3.31303719	        -18.57908357	        -54.43565178	         10.19591332	         -1.31446059	          5.14053481	        -10.26143861	         -5.83193040	         -1.54106553	         -6.95346303	         -0.26459258	        -17.05061147	         15.53797737	         -7.39566708	        -16.45791785	          9.63314265	         29.88472517	         21.42278928	         86.51662706	         86.51662706	
          3.57800000	         -1.55704757	          1.74463732	          5.02696240	         -0.35845223	          0.95425914	         -0.23397325	          1.99011146	          5.87897359	          6.32600224	         29.88209721	         -1.65715788	         -3.73421122	        -17.86357647	        -49.87135948	         10.66296571	         -0.96265523	          5.29211406	        -10.36859442	         -6.02824135	         -1.26871361	         -7.43305641	         -0.03154092	        -17.28418183	         15.45726583	         -7.75340427	        -16.33013246	          9.00432072	         30.81084670	         21.07174546	         86.51662706	         86.51662706	
          3.59400000	         -1.41753684	          1.58675067	          5.19144750	         -0.33876784	          0.95318343	         -0.23423163	          0.13576900	          5.51245488	          6.49562039	         30.36909985	         -1.82808551	         -4.22061934	        -17.12037545	        -44.83712043	         11.10414613	         -1.29794452	          5.51601392	        -10.05790204	         -6.21865975	         -1.08128241	         -7.88713505	          0.21240657	        -17.50121243	         15.43695968	         -8.05170108	        -16.18576771	          8.48664891	         31.57070613	         20.63323353	         86.51662706	         86.51662706	
          3.61000000	         -1.28845897	          1.50542602	          5.35440538	         -0.31885973	          0.95161524	         -0.23442575	         -1.72199487	          5.20939339	          6.68186935	         30.59121416	         -2.05101712	         -4.78584974	        -16.38239274	        -39.46345287	         11.49140163	         -1.61134262	          5.74839975	         -9.29999421	         -6.39271664	         -0.97395470	         -8.29198956	          0.47907062	        -17.68523254	         15.48601788	         -8.28887551	        -16.02991015	          8.11032866	         32.13155782	         20.09737829	         86.51662706	         86.51662706	
          3.62600000	         -1.17635418	          1.49316833	          5.52757595	         -0.29871924	          0.94962357	         -0.23456802	         -3.54998402	          4.97324699	          6.95479658	         30.58896369	         -2.31713161	         -5.47881467	        -15.69812304	        -33.84730664	         11.79607903	         -1.35292215	          5.91848869	         -8.02228657	         -6.54225859	         -0.93783908	         -8.64025101	          0.77973111	        -17.82230656	         15.61495374	         -8.46932972	        -15.86558031	          7.89816685	         32.46734913	         19.45521961	         86.51662706	         86.51662706	
          3.64200000	         -1.08483342	          1.53548405	          5.72727934	         -0.27832916	          0.94729699	         -0.23466554	         -5.31498755	          4.78875796	          7.31491462	         30.41314338	         -2.62122482	         -6.35715576	        -15.11870626	        -28.13842481	         12.00436214	         -0.75854347	          6.01984807	         -6.17550868	         -6.66012073	         -0.95601064	         -8.93772977	          1.11435836	        -17.90509521	         15.83293963	         -8.59773511	        -15.69443817	          7.86461454	         32.56558587	         18.70635376	         86.51662706	         86.51662706	
          3.65800000	         -1.00622351	          1.60909878	          5.94340549	         -0.25763662	          0.94472853	         -0.23466331	         -7.00208191	          4.62073426	          7.68260737	         30.12372753	         -2.92011439	         -7.42249450	        -14.68486146	        -22.62914963	         12.12128126	         -0.14116063	          6.11361439	         -3.95791961	         -6.74691269	         -1.00479717	         -9.17646468	          1.46569777	        -17.93416564	         16.13928595	         -8.67941200	        -15.51763215	          8.01480385	         32.43180076	         17.86181962	         86.51662706	         86.51662706	
          3.67400000	         -0.92951896	          1.69304623	          6.15393839	         -0.23658063	          0.94200252	         -0.23448948	         -8.59582398	          4.44067379	          7.98660781	         29.81124972	         -3.16674278	         -8.61467929	        -14.44491464	        -17.79598349	         12.15117517	          0.39184465	          6.26121400	         -1.62948865	         -6.80657953	         -1.06359485	         -9.34564611	          1.80459273	        -17.91578937	         16.52097489	         -8.72008688	        -15.33754471	          8.34557543	         32.09175798	         16.94523505	         86.51662706	         86.51662706	
          3.69000000	         -0.84662217	          1.76573426	          6.36643359	         -0.21511590	          0.93921007	         -0.23413304	        -10.06512928	          4.21803586	          8.15002798	         29.55147671	         -3.33593482	         -9.84961522	        -14.46462500	        -14.06945817	         12.09891000	          0.95252232	          6.54801792	          0.47898675	         -6.84083311	         -1.10566740	         -9.47188262	          2.09389480	        -17.85704465	         16.95494227	         -8.72567498	        -15.16003291	          8.84058620	         31.58611043	         15.99603581	         86.51662706	         86.51662706	
